<?xml version="1.0" encoding="utf-8"?>
<!-- Generator: Adobe Illustrator 23.0.6, SVG Export Plug-In . SVG Version: 6.00 Build 0)  -->
<svg version="1.1" id="レイヤー_1" xmlns="http://www.w3.org/2000/svg" xmlns:xlink="http://www.w3.org/1999/xlink" x="0px"
	 y="0px" viewBox="0 0 256 289" style="enable-background:new 0 0 256 289;" xml:space="preserve">
<style type="text/css">
	.st0{fill:#FAE501;}
	.st1{fill:#4FB5E1;}
	.st2{fill:#F05751;}
	.st3{fill:#0681B6;}
	.st4{fill:#CD4739;}
</style>
<g>
	<path class="st0" d="M91.7,195.6c-13.8-13-21.9-30.8-21.9-51.1s8.1-38.1,21.1-51.1c11.4-11.4,11.4-29.2,0-40.6s-29.2-11.4-40.6,0
		C27.6,76.4,13,108.8,13,144.5s14.6,68.1,38.1,91.7c11.4,11.4,29.2,11.4,40.6,0C102.2,224.8,102.2,207,91.7,195.6z"/>
	<path class="st1" d="M91.7,93.4c13-13.8,30.8-21.9,51.1-21.9s38.1,8.1,51.1,21.1c11.4,11.4,29.2,11.4,40.6,0
		c11.4-11.4,11.4-29.2,0-40.6c-23.5-22.7-56-37.3-91.7-37.3S74.7,29.3,51.1,52.8c-11.4,11.4-11.4,29.2,0,40.6
		C62.5,103.9,80.3,103.9,91.7,93.4z"/>
	<path class="st2" d="M193.9,195.6c-13,13.8-30.8,21.9-51.1,21.9s-38.1-8.1-51.1-21.1c-11.4-11.4-29.2-11.4-40.6,0
		c-11.4,11.4-11.4,29.2,0,40.6c23.5,22.7,56,37.3,91.7,37.3s68.1-14.6,91.7-38.1c11.4-11.4,11.4-29.2,0-40.6
		C223.1,185.1,205.3,185.1,193.9,195.6z"/>
	<ellipse class="st3" cx="71.4" cy="73.1" rx="28.4" ry="28.4"/>
	<ellipse class="st4" cx="71.4" cy="215.9" rx="28.4" ry="28.4"/>
</g>
</svg>
