<?xml version="1.0" encoding="UTF-8"?>
<svg width="400px" height="303px" viewBox="0 0 400 303" version="1.1" xmlns="http://www.w3.org/2000/svg" xmlns:xlink="http://www.w3.org/1999/xlink">
    <!-- Generator: Sketch 51.3 (57544) - http://www.bohemiancoding.com/sketch -->
    <title>nuxt</title>
    <desc>Created with Sketch.</desc>
    <defs></defs>
    <g id="nuxt" stroke="none" stroke-width="1" fill="none" fill-rule="evenodd">
        <g>
            <path d="M122.692149,292.186232 C122.392985,291.651773 122.12655,291.099281 121.894344,290.531868 C120.283768,286.767696 119.787871,282.612564 120.466693,278.569539 L25.1919719,278.569539 L166.781376,26.8516093 L226.356162,134.211731 L245.146881,120.020101 L186.222626,13.1924968 C185.088903,11.1139362 178.244575,2.84217094e-14 166.445458,2.84217094e-14 C161.112761,2.84217094e-14 153.470629,2.33307822 147.256147,13.3621753 L3.81919406,268.134317 C2.60149159,270.340136 -3.3190618,281.920688 2.55950185,292.186232 C5.24684523,296.852389 10.9574499,302.409357 23.554372,302.409357 L143.687019,302.409357 C131.174076,302.409357 125.379492,296.937228 122.692149,292.186232 Z" id="Path" fill="#00C58E"></path>
            <path d="M394.97721,268.612925 L279.665282,61.7770927 C278.473958,59.6020748 271.818977,48.6015038 260.23438,48.6015038 C255.017203,48.6015038 247.54062,50.8601761 241.46076,61.7352654 L226.320637,86.4102878 L226.320637,134.074188 L260.35762,75.0781634 L374.437144,278.902433 L331.056526,278.902433 C331.611627,282.271937 331.300266,285.730383 330.152763,288.940977 C329.911093,289.649807 329.608674,290.335627 329.249,290.990513 L328.879279,291.743404 C323.0459,301.865602 310.4343,302.409357 307.969492,302.409357 L375.833869,302.409357 C378.339757,302.409357 390.910277,301.865602 396.743655,291.743404 C399.331704,287.142404 401.18031,279.40436 394.97721,268.612925 Z" id="Path" fill="#108775"></path>
            <path d="M331.905831,291.647007 L332.287376,290.887312 C332.658552,290.226508 332.970642,289.53449 333.220041,288.819253 C334.404241,285.579643 334.725559,282.08994 334.152706,278.689983 C333.492909,275.023111 332.171507,271.505513 330.252471,268.307481 L240.080736,110.375279 L226.548673,86.4026734 L226.302732,86.4026734 L212.609516,110.375279 L122.480174,268.307481 C120.730208,271.543503 119.554193,275.055856 119.003878,278.689983 C118.278502,282.700392 118.734948,286.83411 120.318088,290.591875 C120.552529,291.156422 120.821528,291.706123 121.123571,292.237881 C123.836778,296.880464 129.602343,302.409357 142.3205,302.409357 L310.200176,302.409357 C312.870989,302.409357 325.885903,301.860688 331.905831,291.647007 Z M226.302732,134.347885 L308.716391,278.689983 L143.931466,278.689983 L226.302732,134.347885 Z" id="Shape" fill="#2F495E" fill-rule="nonzero"></path>
        </g>
    </g>
</svg>